<mxfile host="app.diagrams.net" agent="Mozilla/5.0 (X11; Linux x86_64) AppleWebKit/537.36 (KHTML, like Gecko) Chrome/129.0.0.0 Safari/537.36" version="24.7.17">
  <diagram id="07fea595-8f29-1299-0266-81d95cde20df" name="Page-1">
    <mxGraphModel dx="3376" dy="687" grid="1" gridSize="10" guides="1" tooltips="1" connect="1" arrows="1" fold="1" page="1" pageScale="1" pageWidth="1169" pageHeight="827" background="none" math="0" shadow="0">
      <root>
        <mxCell id="0" />
        <mxCell id="1" parent="0" />
        <mxCell id="698" value="" style="rounded=0;whiteSpace=wrap;html=1;shadow=0;labelBackgroundColor=none;strokeColor=none;strokeWidth=3;fillColor=#e8edf0;fontSize=60;fontColor=#2F5B7C;align=left;" parent="1" vertex="1">
          <mxGeometry x="-2290" y="32" width="2250" height="1598" as="geometry" />
        </mxCell>
        <mxCell id="699" value="&lt;div style=&quot;font-size: 26px&quot;&gt;&lt;font style=&quot;font-size: 26px&quot;&gt;Customer Relationships&lt;/font&gt;&lt;/div&gt;&lt;div&gt;&lt;br&gt;&lt;/div&gt;&lt;div&gt;What type of relationship does each of our Customer&lt;/div&gt;&lt;div&gt;Segments expect us to establish and maintain with them?&lt;/div&gt;&lt;div&gt;Which ones have we established?&lt;/div&gt;&lt;div&gt;How are they integrated with the rest of our business model?&lt;/div&gt;&lt;div&gt;How costly are they?&lt;/div&gt;&lt;div&gt;&lt;br&gt;&lt;/div&gt;&lt;div style=&quot;font-size: 10px&quot;&gt;&lt;font style=&quot;font-size: 10px&quot;&gt;&lt;b&gt;Examples&lt;/b&gt;&lt;/font&gt;&lt;/div&gt;&lt;div style=&quot;font-size: 10px&quot;&gt;&lt;font style=&quot;font-size: 10px&quot;&gt;Personal assistance&lt;/font&gt;&lt;/div&gt;&lt;div style=&quot;font-size: 10px&quot;&gt;&lt;font style=&quot;font-size: 10px&quot;&gt;Dedicated Personal Assistance&lt;/font&gt;&lt;/div&gt;&lt;div style=&quot;font-size: 10px&quot;&gt;&lt;font style=&quot;font-size: 10px&quot;&gt;Self-Service&lt;/font&gt;&lt;/div&gt;&lt;div style=&quot;font-size: 10px&quot;&gt;&lt;font style=&quot;font-size: 10px&quot;&gt;Automated Services&lt;/font&gt;&lt;/div&gt;&lt;div style=&quot;font-size: 10px&quot;&gt;&lt;font style=&quot;font-size: 10px&quot;&gt;Communities&lt;/font&gt;&lt;/div&gt;&lt;div style=&quot;font-size: 10px&quot;&gt;&lt;font style=&quot;font-size: 10px&quot;&gt;Co-creation&lt;/font&gt;&lt;/div&gt;" style="rounded=0;whiteSpace=wrap;html=1;shadow=0;labelBackgroundColor=none;strokeColor=#e8edf0;strokeWidth=5;fillColor=#ffffff;fontSize=12;fontColor=#2F5B7C;align=left;verticalAlign=top;spacing=30;" parent="1" vertex="1">
          <mxGeometry x="-950" y="220" width="420" height="450" as="geometry" />
        </mxCell>
        <mxCell id="700" value="&lt;font&gt;&lt;font style=&quot;font-size: 26px&quot;&gt;Key Partners&lt;/font&gt;&lt;br&gt;&lt;/font&gt;&lt;font style=&quot;font-size: 12px&quot;&gt;&lt;br style=&quot;font-size: 12px&quot;&gt;Universities&lt;/font&gt;&lt;div&gt;&lt;font style=&quot;font-size: 12px&quot;&gt;investors&lt;/font&gt;&lt;/div&gt;&lt;div&gt;&lt;font style=&quot;font-size: 12px&quot;&gt;government&lt;br&gt;&lt;/font&gt;&lt;div style=&quot;font-size: 12px&quot;&gt;&lt;br style=&quot;font-size: 12px&quot;&gt;&lt;/div&gt;&lt;/div&gt;" style="rounded=0;whiteSpace=wrap;html=1;shadow=0;labelBackgroundColor=none;strokeColor=#e8edf0;strokeWidth=5;fillColor=#ffffff;fontSize=12;fontColor=#2F5B7C;align=left;verticalAlign=top;spacing=30;" parent="1" vertex="1">
          <mxGeometry x="-2210" y="220" width="420" height="900" as="geometry" />
        </mxCell>
        <mxCell id="701" value="&lt;font&gt;&lt;font style=&quot;font-size: 26px&quot;&gt;Key Activities&lt;/font&gt;&lt;br style=&quot;font-size: 12px&quot;&gt;&lt;/font&gt;&lt;font&gt;&lt;br style=&quot;font-size: 12px&quot;&gt;&lt;div&gt;What Key Activities do our Value Propositions require?&lt;/div&gt;&lt;div&gt;Our Distribution Channels?&lt;/div&gt;&lt;div&gt;Customer Relationships?&lt;/div&gt;&lt;div&gt;Revenue streams?&lt;/div&gt;&lt;div&gt;&lt;br&gt;&lt;/div&gt;&lt;/font&gt;&lt;div style=&quot;font-size: 10px&quot;&gt;&lt;div&gt;&lt;b&gt;Categories&lt;/b&gt;&lt;/div&gt;&lt;div&gt;Production&lt;/div&gt;&lt;div&gt;Problem Solving&lt;/div&gt;&lt;div&gt;Platform/Network&lt;/div&gt;&lt;/div&gt;&lt;div&gt;&lt;br&gt;&lt;/div&gt;" style="rounded=0;whiteSpace=wrap;html=1;shadow=0;labelBackgroundColor=none;strokeColor=#e8edf0;strokeWidth=5;fillColor=#ffffff;fontSize=12;fontColor=#2F5B7C;align=left;verticalAlign=top;spacing=30;" parent="1" vertex="1">
          <mxGeometry x="-1790" y="220" width="420" height="450" as="geometry" />
        </mxCell>
        <mxCell id="702" value="&lt;div&gt;&lt;font style=&quot;font-size: 26px&quot;&gt;Key Resources&lt;/font&gt;&lt;/div&gt;&lt;div&gt;&lt;br&gt;&lt;/div&gt;&lt;div&gt;Technology&lt;/div&gt;&lt;div&gt;Machines&lt;/div&gt;&lt;div&gt;Researchers&lt;/div&gt;&lt;div&gt;Universities&#39; support&lt;/div&gt;&lt;div&gt;&lt;br&gt;&lt;/div&gt;" style="rounded=0;whiteSpace=wrap;html=1;shadow=0;labelBackgroundColor=none;strokeColor=#e8edf0;strokeWidth=5;fillColor=#ffffff;fontSize=12;fontColor=#2F5B7C;align=left;verticalAlign=top;spacing=30;" parent="1" vertex="1">
          <mxGeometry x="-1790" y="670" width="420" height="450" as="geometry" />
        </mxCell>
        <mxCell id="703" value="&lt;div style=&quot;font-size: 26px&quot;&gt;&lt;font style=&quot;font-size: 26px&quot;&gt;Value Propositions&lt;/font&gt;&lt;/div&gt;&lt;div&gt;&lt;br&gt;&lt;/div&gt;&lt;div&gt;garbage-&amp;gt;side product&lt;/div&gt;&lt;div&gt;insipre new generation&lt;/div&gt;&lt;div&gt;ESG&lt;/div&gt;" style="rounded=0;whiteSpace=wrap;html=1;shadow=0;labelBackgroundColor=none;strokeColor=#e8edf0;strokeWidth=5;fillColor=#ffffff;fontSize=12;fontColor=#2F5B7C;align=left;verticalAlign=top;spacing=30;" parent="1" vertex="1">
          <mxGeometry x="-1370" y="220" width="420" height="900" as="geometry" />
        </mxCell>
        <mxCell id="704" value="&lt;div&gt;&lt;font style=&quot;font-size: 26px&quot;&gt;Customer Segments&lt;/font&gt;&lt;/div&gt;&lt;div&gt;&lt;br&gt;&lt;/div&gt;&lt;div&gt;Universties&lt;/div&gt;&lt;div&gt;individuals&lt;/div&gt;&lt;div&gt;&lt;br&gt;&lt;/div&gt;" style="rounded=0;whiteSpace=wrap;html=1;shadow=0;labelBackgroundColor=none;strokeColor=#e8edf0;strokeWidth=5;fillColor=#ffffff;fontSize=12;fontColor=#2F5B7C;align=left;verticalAlign=top;spacing=30;" parent="1" vertex="1">
          <mxGeometry x="-530" y="220" width="420" height="900" as="geometry" />
        </mxCell>
        <mxCell id="705" value="&lt;div&gt;&lt;font style=&quot;font-size: 26px&quot;&gt;Channels&lt;/font&gt;&lt;/div&gt;&lt;div&gt;&lt;br&gt;&lt;/div&gt;&lt;div style=&quot;font-size: 10px&quot;&gt;&lt;font style=&quot;font-size: 10px&quot;&gt;&lt;b&gt;Channel phases&lt;/b&gt;&lt;/font&gt;&lt;/div&gt;&lt;div style=&quot;font-size: 10px&quot;&gt;&lt;font style=&quot;font-size: 10px&quot;&gt;1. Awareness&lt;/font&gt;&lt;/div&gt;&lt;div style=&quot;font-size: 10px&quot;&gt;&lt;font style=&quot;font-size: 10px&quot;&gt;&amp;nbsp; &amp;nbsp; University&lt;/font&gt;&lt;/div&gt;&lt;div style=&quot;font-size: 10px&quot;&gt;&lt;font style=&quot;font-size: 10px&quot;&gt;2. Evaluation&lt;/font&gt;&lt;/div&gt;&lt;div style=&quot;font-size: 10px&quot;&gt;&lt;font style=&quot;font-size: 10px&quot;&gt;&amp;nbsp; &amp;nbsp; How do we help customers evaluate our organizationâ€™s Value Proposition?&lt;/font&gt;&lt;/div&gt;&lt;div style=&quot;font-size: 10px&quot;&gt;&lt;font style=&quot;font-size: 10px&quot;&gt;3. Purchase&lt;/font&gt;&lt;/div&gt;&lt;div style=&quot;font-size: 10px&quot;&gt;&lt;font style=&quot;font-size: 10px&quot;&gt;&amp;nbsp; &amp;nbsp; How do we allow customers to purchase specific products and services?&lt;/font&gt;&lt;/div&gt;&lt;div style=&quot;font-size: 10px&quot;&gt;&lt;font style=&quot;font-size: 10px&quot;&gt;4. Delivery&lt;/font&gt;&lt;/div&gt;&lt;div style=&quot;font-size: 10px&quot;&gt;&lt;font style=&quot;font-size: 10px&quot;&gt;&amp;nbsp; &amp;nbsp; How do we deliver a Value Proposition to customers?&lt;/font&gt;&lt;/div&gt;&lt;div style=&quot;font-size: 10px&quot;&gt;&lt;font style=&quot;font-size: 10px&quot;&gt;5. After sales&lt;/font&gt;&lt;/div&gt;&lt;div style=&quot;font-size: 10px&quot;&gt;&lt;font style=&quot;font-size: 10px&quot;&gt;&amp;nbsp; &amp;nbsp; Maintainence&lt;/font&gt;&lt;/div&gt;&lt;div style=&quot;font-size: 10px&quot;&gt;&lt;font style=&quot;font-size: 10px&quot;&gt;&amp;nbsp; &amp;nbsp;&amp;nbsp;&lt;/font&gt;&lt;/div&gt;&lt;div style=&quot;font-size: 10px&quot;&gt;&lt;br&gt;&lt;/div&gt;" style="rounded=0;whiteSpace=wrap;html=1;shadow=0;labelBackgroundColor=none;strokeColor=#e8edf0;strokeWidth=5;fillColor=#ffffff;fontSize=12;fontColor=#2F5B7C;align=left;verticalAlign=top;spacing=30;" parent="1" vertex="1">
          <mxGeometry x="-950" y="670" width="420" height="450" as="geometry" />
        </mxCell>
        <mxCell id="706" value="&lt;div style=&quot;font-size: 26px&quot;&gt;&lt;font style=&quot;font-size: 26px&quot;&gt;Cost Structure&lt;/font&gt;&lt;/div&gt;&lt;div&gt;&lt;br&gt;&lt;/div&gt;&lt;div&gt;Hiring people&lt;/div&gt;&lt;div&gt;Maintainence&lt;/div&gt;&lt;div&gt;R&amp;amp;D spending&lt;/div&gt;&lt;div&gt;&lt;br&gt;&lt;/div&gt;" style="rounded=0;whiteSpace=wrap;html=1;shadow=0;labelBackgroundColor=none;strokeColor=#e8edf0;strokeWidth=5;fillColor=#ffffff;fontSize=12;fontColor=#2F5B7C;align=left;verticalAlign=top;spacing=30;" parent="1" vertex="1">
          <mxGeometry x="-2210" y="1120" width="1050" height="330" as="geometry" />
        </mxCell>
        <mxCell id="707" value="&lt;div style=&quot;font-size: 26px&quot;&gt;&lt;font style=&quot;font-size: 26px&quot;&gt;Revenue Streams&lt;/font&gt;&lt;/div&gt;&lt;div&gt;&lt;br&gt;&lt;/div&gt;&lt;div&gt;Usage fees&lt;/div&gt;&lt;div&gt;&lt;br&gt;&lt;/div&gt;" style="rounded=0;whiteSpace=wrap;html=1;shadow=0;labelBackgroundColor=none;strokeColor=#e8edf0;strokeWidth=5;fillColor=#ffffff;fontSize=12;fontColor=#2F5B7C;align=left;verticalAlign=top;spacing=30;" parent="1" vertex="1">
          <mxGeometry x="-1160" y="1120" width="1050" height="330" as="geometry" />
        </mxCell>
        <mxCell id="708" value="The Business Model Canvas for JAPJAP version 1" style="text;html=1;resizable=0;points=[];autosize=1;align=left;verticalAlign=top;spacingTop=-4;fontSize=60;fontColor=#2F5B7C;" parent="1" vertex="1">
          <mxGeometry x="-2210" y="110" width="1370" height="80" as="geometry" />
        </mxCell>
        <mxCell id="709" value="" style="html=1;verticalLabelPosition=bottom;labelBackgroundColor=#ffffff;verticalAlign=top;shadow=0;dashed=0;strokeWidth=4;shape=mxgraph.ios7.misc.check;strokeColor=#2F5B7C;fillColor=#ffffff;gradientColor=none;fontSize=12;fontColor=#2F5B7C;align=left;" parent="1" vertex="1">
          <mxGeometry x="-1410" y="252" width="20" height="16" as="geometry" />
        </mxCell>
        <mxCell id="710" value="" style="shape=mxgraph.signs.travel.present;html=1;fillColor=#2F5B7C;strokeColor=none;verticalLabelPosition=bottom;verticalAlign=top;align=center;shadow=0;labelBackgroundColor=none;fontSize=12;fontColor=#2F5B7C;" parent="1" vertex="1">
          <mxGeometry x="-1000" y="235" width="31" height="40" as="geometry" />
        </mxCell>
        <mxCell id="711" value="" style="html=1;verticalLabelPosition=bottom;labelBackgroundColor=#ffffff;verticalAlign=top;strokeWidth=3;strokeColor=none;fillColor=#2F5B7C;shadow=0;dashed=0;shape=mxgraph.ios7.icons.heart;fontSize=12;fontColor=#2F5B7C;align=left;" parent="1" vertex="1">
          <mxGeometry x="-594.9999999999997" y="242" width="41" height="36" as="geometry" />
        </mxCell>
        <mxCell id="712" value="&lt;div style=&quot;font-size: 10px&quot;&gt;&lt;b&gt;Dynamic pricing&lt;/b&gt;&lt;/div&gt;&lt;div style=&quot;font-size: 10px&quot;&gt;Negotiation( bargaining)&lt;/div&gt;&lt;div style=&quot;font-size: 10px&quot;&gt;Yield Management&lt;/div&gt;&lt;div style=&quot;font-size: 10px&quot;&gt;Real-time-Market&lt;/div&gt;" style="text;html=1;resizable=0;points=[];autosize=1;align=left;verticalAlign=top;spacingTop=-4;fontSize=10;fontColor=#2F5B7C;" parent="1" vertex="1">
          <mxGeometry x="-805.5" y="1286" width="120" height="50" as="geometry" />
        </mxCell>
        <mxCell id="713" value="&lt;div style=&quot;font-size: 10px&quot;&gt;&lt;b&gt;Fixed pricing&lt;/b&gt;&lt;/div&gt;&lt;div style=&quot;font-size: 10px&quot;&gt;List Price&lt;/div&gt;&lt;div style=&quot;font-size: 10px&quot;&gt;Product feature dependent&lt;/div&gt;&lt;div style=&quot;font-size: 10px&quot;&gt;Customer segment dependent&lt;/div&gt;&lt;div style=&quot;font-size: 10px&quot;&gt;Volume dependent&lt;/div&gt;" style="text;html=1;resizable=0;points=[];autosize=1;align=left;verticalAlign=top;spacingTop=-4;fontSize=10;fontColor=#2F5B7C;" parent="1" vertex="1">
          <mxGeometry x="-984.5" y="1286" width="150" height="60" as="geometry" />
        </mxCell>
        <mxCell id="714" value="&lt;div style=&quot;font-size: 10px&quot;&gt;&lt;b&gt;Types&lt;/b&gt;&lt;/div&gt;&lt;div style=&quot;font-size: 10px&quot;&gt;Asset sale&lt;/div&gt;&lt;div style=&quot;font-size: 10px&quot;&gt;Usage fee&lt;/div&gt;&lt;div style=&quot;font-size: 10px&quot;&gt;Subscription Fees&lt;/div&gt;&lt;div style=&quot;font-size: 10px&quot;&gt;Lending/Renting/Leasing&lt;/div&gt;&lt;div style=&quot;font-size: 10px&quot;&gt;Licensing&lt;/div&gt;&lt;div style=&quot;font-size: 10px&quot;&gt;Brokerage fees&lt;/div&gt;&lt;div style=&quot;font-size: 10px&quot;&gt;Advertising&lt;/div&gt;" style="text;html=1;resizable=0;points=[];autosize=1;align=left;verticalAlign=top;spacingTop=-4;fontSize=10;fontColor=#2F5B7C;" parent="1" vertex="1">
          <mxGeometry x="-1130" y="1286" width="130" height="100" as="geometry" />
        </mxCell>
        <mxCell id="715" value="" style="shadow=0;dashed=0;html=1;strokeColor=none;labelPosition=center;verticalLabelPosition=bottom;verticalAlign=top;shape=mxgraph.mscae.cloud.data_factory;fillColor=#2F5B7C;labelBackgroundColor=none;fontSize=10;fontColor=#2F5B7C;align=left;" parent="1" vertex="1">
          <mxGeometry x="-1440" y="690" width="50" height="50" as="geometry" />
        </mxCell>
        <mxCell id="716" value="" style="shape=mxgraph.signs.transportation.truck_6;html=1;fillColor=#2F5B7C;strokeColor=none;verticalLabelPosition=bottom;verticalAlign=top;align=center;shadow=0;labelBackgroundColor=none;fontSize=10;fontColor=#2F5B7C;aspect=fixed;" parent="1" vertex="1">
          <mxGeometry x="-590" y="690" width="40" height="50" as="geometry" />
        </mxCell>
        <mxCell id="717" value="" style="shape=image;html=1;verticalAlign=top;verticalLabelPosition=bottom;labelBackgroundColor=#ffffff;imageAspect=0;aspect=fixed;image=https://cdn4.iconfinder.com/data/icons/evil-icons-user-interface/64/price-128.png;shadow=0;strokeColor=#e8edf0;strokeWidth=3;fillColor=#2F5B7C;gradientColor=none;fontSize=10;fontColor=#2F5B7C;align=left;" parent="1" vertex="1">
          <mxGeometry x="-1226" y="1140" width="58" height="58" as="geometry" />
        </mxCell>
        <mxCell id="718" value="" style="dashed=0;html=1;shape=mxgraph.aws3.checklist_cost;fillColor=#2F5B7C;gradientColor=none;shadow=0;labelBackgroundColor=none;strokeColor=none;strokeWidth=3;fontSize=10;fontColor=#2F5B7C;align=left;" parent="1" vertex="1">
          <mxGeometry x="-203.5" y="1131.5" width="67.5" height="75" as="geometry" />
        </mxCell>
        <mxCell id="719" value="" style="shadow=0;dashed=0;html=1;strokeColor=none;fillColor=#2F5B7C;labelPosition=center;verticalLabelPosition=bottom;verticalAlign=top;outlineConnect=0;shape=mxgraph.office.concepts.link;labelBackgroundColor=none;fontSize=10;fontColor=#000000;align=left;" parent="1" vertex="1">
          <mxGeometry x="-1871" y="241" width="61" height="21" as="geometry" />
        </mxCell>
        <mxCell id="720" value="" style="group" parent="1" vertex="1" connectable="0">
          <mxGeometry x="-203.5" y="245" width="69" height="50" as="geometry" />
        </mxCell>
        <mxCell id="721" value="" style="shadow=0;dashed=0;html=1;strokeColor=#FFFFFF;labelPosition=center;verticalLabelPosition=bottom;verticalAlign=top;outlineConnect=0;shape=mxgraph.office.users.user;fillColor=#2F5B7C;labelBackgroundColor=none;fontSize=10;fontColor=#000000;align=left;strokeWidth=2;" parent="720" vertex="1">
          <mxGeometry x="31" y="-5" width="46" height="50" as="geometry" />
        </mxCell>
        <mxCell id="722" value="" style="shadow=0;dashed=0;html=1;strokeColor=#FFFFFF;labelPosition=center;verticalLabelPosition=bottom;verticalAlign=top;outlineConnect=0;shape=mxgraph.office.users.user;fillColor=#2F5B7C;labelBackgroundColor=none;fontSize=10;fontColor=#000000;align=left;strokeWidth=2;" parent="720" vertex="1">
          <mxGeometry width="46" height="50" as="geometry" />
        </mxCell>
      </root>
    </mxGraphModel>
  </diagram>
</mxfile>
